<svg xmlns="http://www.w3.org/2000/svg" width="19" height="19" viewBox="0 0 19 19"><g><g><path fill="#ebc712" d="M4.112 8.182c-2.484 0-4.116-1.75-4.116-4.043 0-2.317 1.632-4.141 4.116-4.141 2.509 0 4.14 1.824 4.14 4.141 0 2.293-1.631 4.043-4.14 4.043zm0-1.923c1.12 0 1.924-.838 1.924-2.12 0-1.38-.804-2.194-1.924-2.194-1.096 0-1.924.814-1.924 2.194 0 1.282.828 2.12 1.924 2.12zm11.481-4.986L4.907 18.169a.67.67 0 0 1-.566.313h-.433c-.53 0-.852-.593-.566-1.046L14.002.54a.67.67 0 0 1 .567-.315h.458c.532 0 .853.595.566 1.048zm3.405 13.608c0 2.323-1.678 4.122-4.197 4.122-2.518 0-4.172-1.799-4.172-4.122 0-2.35 1.654-4.199 4.172-4.199 2.519 0 4.197 1.85 4.197 4.199zm-2.221 0c0-1.375-.84-2.225-1.976-2.225-1.135 0-1.95.85-1.95 2.225 0 1.349.815 2.173 1.95 2.173 1.136 0 1.976-.824 1.976-2.173z"/></g></g></svg>