<svg xmlns="http://www.w3.org/2000/svg" width="18" height="16" viewBox="0 0 18 16"><g><g><path fill="#333" d="M17.968 7.438c-.144.593-1.375 5.657-1.729 6.536-.18.446-.689 1.181-2.084 1.237-.017.002-.035.006-.053.006H8.51c-.673 0-1.636-.43-2.293-.771v.67c0 .207-.077.885-1.063.885H.95c-.88 0-.948-.678-.948-.885V6.76c0-.539.258-1.394.948-1.394h4.204c.628 0 .958.735 1.04 1.19l.122-.05L7.98 3.477c-.02-.575-.036-1.823.157-2.372C8.317.592 9.006.04 9.848.002c.552-.025 1.582.162 2.291 1.717.587 1.284.613 2.23.487 2.863h3.79c.227 0 .564.085.887.492.473.593.796 1.743.665 2.364zM5.017 6.761a.794.794 0 0 0-.065-.174H1.227a.914.914 0 0 0-.024.174v8.019h3.814zm11.323-.958h-4.552a.61.61 0 1 1-.447-1.015L11.3 4.75c.011-.017.551-.765-.248-2.517-.205-.45-.558-.99-1.075-1.012-.356-.014-.65.21-.713.306-.09.288-.11 1.29-.077 2.07l.008.173-2.04 3.715-.937.373v5.2c.687.401 1.81.937 2.293.937h5.477c.628 0 1.012-.162 1.14-.483.272-.674 1.298-4.811 1.67-6.348.05-.255-.226-1.144-.457-1.361z"/></g></g></svg>