<svg xmlns="http://www.w3.org/2000/svg" width="20" height="15" viewBox="0 0 20 15"><g><g><path fill="#ebc712" d="M-.001.833A.82.82 0 0 1 .806 0h16.117a.82.82 0 0 1 .806.833.82.82 0 0 1-.806.833H.806A.82.82 0 0 1-.001.833zm0 4.375a.82.82 0 0 1 .807-.833h13.716a.82.82 0 0 1 .807.833.82.82 0 0 1-.807.834H.806a.82.82 0 0 1-.807-.834zm20.013 4.458a.82.82 0 0 1-.807.834H.805A.82.82 0 0 1 0 9.666a.82.82 0 0 1 .807-.833h18.4a.82.82 0 0 1 .806.833zm-12.11 4.5a.82.82 0 0 1-.807.834H.805A.82.82 0 0 1 0 14.167a.82.82 0 0 1 .807-.834h6.289a.82.82 0 0 1 .806.834z"/></g></g></svg>