<svg xmlns="http://www.w3.org/2000/svg" width="31" height="31" viewBox="0 0 31 31"><g><g opacity="1"><path fill="#fff" d="M15.5 0C24.06 0 31 6.94 31 15.5 31 24.06 24.06 31 15.5 31 6.94 31 0 24.06 0 15.5 0 6.94 6.94 0 15.5 0z"/></g><g opacity="1"><path fill="#fb2539" d="M15.5 26.99c-6.346 0-11.51-5.158-11.51-11.497 0-6.34 5.164-11.497 11.51-11.497 6.348 0 11.512 5.158 11.512 11.497 0 6.34-5.164 11.496-11.511 11.496zm0-21.661c-5.61 0-10.175 4.56-10.175 10.164S9.889 25.657 15.5 25.657c5.611 0 10.176-4.56 10.176-10.164 0-5.605-4.565-10.164-10.176-10.164zM12.4 20.39v-9.795l8.494 4.898zm1.336-7.486v5.177l4.489-2.588z"/></g></g></svg>
