<svg xmlns="http://www.w3.org/2000/svg" width="13" height="13" viewBox="0 0 13 13"><g><g opacity="1"><path fill="#777" d="M13.007 6.491a6.51 6.51 0 0 1-6.502 6.503A6.51 6.51 0 0 1 .002 6.49 6.51 6.51 0 0 1 6.505-.01a6.51 6.51 0 0 1 6.502 6.501zM6.505 1.09A5.41 5.41 0 0 0 1.1 6.49a5.41 5.41 0 0 0 5.404 5.404 5.41 5.41 0 0 0 5.403-5.404A5.41 5.41 0 0 0 6.505 1.09zm.59 8.314c0 .325-.274.6-.599.6a.608.608 0 0 1-.6-.6c0-.325.275-.599.6-.599.325 0 .6.274.6.6zM8.55 4.84c0 .839-.589 1.247-1.109 1.608-.401.278-.747.519-.747.9 0 .137.094.306.23.41l.1.076-.742.316-.034-.03a1.07 1.07 0 0 1-.4-.83c0-.674.508-1.03.956-1.345.4-.28.777-.544.777-.99 0-.496-.415-.817-1.056-.817-.618 0-1.07.233-1.463.755l-.053.071-.58-.626.038-.05c.502-.648 1.26-1.005 2.134-1.005 1.148 0 1.95.64 1.95 1.557z"/></g></g></svg>
