<svg xmlns="http://www.w3.org/2000/svg" width="12" height="11" viewBox="0 0 12 11"><g><g opacity="
1"><path fill="#777" d="M12 1.819v5.423a1.813 1.813 0 0 1-1.796 1.818h-.633v1.058a.879.879 0 0 1-.872.88h-.002a.865.865 0 0 1-.612-.256L6.426 9.06h-4.63A1.813 1.813 0 0 1 0 7.242V1.819C0 .818.807.002 1.796 0h8.406c.99 0 1.797.815 1.798 1.818zm-10.204 6.1h4.866c.149 0 .295.062.4.169L8.45 9.495V8.49c0-.314.253-.57.564-.57h1.196a.677.677 0 0 0 .67-.68V1.97l-.007-.15a.677.677 0 0 0-.67-.679H1.797a.677.677 0 0 0-.67.678v5.423c.001.372.302.677.67.677z"/></g></g></svg>
