<svg xmlns="http://www.w3.org/2000/svg" width="21" height="21" viewBox="0 0 21 21"><g><g><path fill="#ebc712" d="M21 10.5C21 16.29 16.29 21 10.5 21S0 16.29 0 10.5 4.71 0 10.5 0 21 4.71 21 10.5zm-1.697 0c0-4.854-3.95-8.803-8.803-8.803-4.854 0-8.804 3.949-8.804 8.803 0 4.854 3.95 8.803 8.804 8.803s8.803-3.95 8.803-8.803zm-7.56 4.677c0 .662-.581 1.243-1.243 1.243-.662 0-1.243-.581-1.243-1.243 0-.663.58-1.243 1.243-1.243.662 0 1.243.58 1.243 1.243zm1.792-7.25c0 1.354-.978 2.251-1.503 2.733-.455.409-.802.75-.802 1.109v.512a.855.855 0 0 1-.884.884.855.855 0 0 1-.884-.884v-.461c0-1.082.697-1.776 1.258-2.335l.097-.096c.534-.485.95-.863.95-1.411 0-.77-.65-1.42-1.42-1.42-.536 0-1.014.29-1.252.76a.812.812 0 0 1-.75.49.863.863 0 0 1-.419-.111.81.81 0 0 1-.44-.482.85.85 0 0 1 .082-.709C8.14 5.42 9.173 4.79 10.398 4.79c1.7 0 3.137 1.437 3.137 3.138z"/></g></g></svg>